%FSLAX45Y45*%
G04 Gerber Fmt 4.5, Leading zero omitted, Abs format (unit mm)*
G04 Created by KiCad (PCBNEW 4.0.7-e2-6376~58~ubuntu16.04.1) date Tue Aug 20 20:43:00 2024*
%MOMM*%
%LPD*%
G01*
G04 APERTURE LIST*
%ADD10C,0.127000*%
%ADD11C,0.150000*%
%ADD12C,0.200000*%
%ADD13C,0.300000*%
G04 APERTURE END LIST*
D10*
D11*
X14720000Y-10339000D02*
X14720000Y-15739000D01*
X16470000Y-10339000D02*
X14720000Y-10339000D01*
X16470000Y-15735000D02*
X16470000Y-10339000D01*
X14720000Y-15739000D02*
X16470000Y-15735000D01*
D12*
X15021000Y-14585000D02*
X15061000Y-14625000D01*
X15061000Y-14585000D02*
X15021000Y-14625000D01*
X15022000Y-13603000D02*
X15062000Y-13643000D01*
X15062000Y-13603000D02*
X15022000Y-13643000D01*
X15177000Y-13203000D02*
X15217000Y-13243000D01*
X15217000Y-13203000D02*
X15177000Y-13243000D01*
X15186224Y-14723914D02*
X15226224Y-14763914D01*
X15226224Y-14723914D02*
X15186224Y-14763914D01*
X15192000Y-13822000D02*
X15232000Y-13862000D01*
X15232000Y-13822000D02*
X15192000Y-13862000D01*
X15223108Y-14951501D02*
X15263108Y-14991501D01*
X15263108Y-14951501D02*
X15223108Y-14991501D01*
X15232546Y-12717844D02*
X15272546Y-12757844D01*
X15272546Y-12717844D02*
X15232546Y-12757844D01*
X15273000Y-13847000D02*
X15313000Y-13887000D01*
X15313000Y-13847000D02*
X15273000Y-13887000D01*
X15324258Y-12672377D02*
X15364258Y-12712377D01*
X15364258Y-12672377D02*
X15324258Y-12712377D01*
X15347893Y-15239499D02*
X15387893Y-15279499D01*
X15387893Y-15239499D02*
X15347893Y-15279499D01*
X15367000Y-13854000D02*
X15407000Y-13894000D01*
X15407000Y-13854000D02*
X15367000Y-13894000D01*
X15394237Y-12711147D02*
X15434237Y-12751147D01*
X15434237Y-12711147D02*
X15394237Y-12751147D01*
X15434999Y-13435000D02*
X15474999Y-13475000D01*
X15474999Y-13435000D02*
X15434999Y-13475000D01*
X15436499Y-12115234D02*
X15476499Y-12155234D01*
X15476499Y-12115234D02*
X15436499Y-12155234D01*
X15457000Y-13847000D02*
X15497000Y-13887000D01*
X15497000Y-13847000D02*
X15457000Y-13887000D01*
X15462000Y-15563000D02*
X15502000Y-15603000D01*
X15502000Y-15563000D02*
X15462000Y-15603000D01*
X15470056Y-12685616D02*
X15510056Y-12725616D01*
X15510056Y-12685616D02*
X15470056Y-12725616D01*
X15499000Y-12020000D02*
X15539000Y-12060000D01*
X15539000Y-12020000D02*
X15499000Y-12060000D01*
X15510000Y-13570000D02*
X15550000Y-13610000D01*
X15550000Y-13570000D02*
X15510000Y-13610000D01*
X15512593Y-12753372D02*
X15552593Y-12793372D01*
X15552593Y-12753372D02*
X15512593Y-12793372D01*
X15550455Y-12916076D02*
X15590455Y-12956076D01*
X15590455Y-12916076D02*
X15550455Y-12956076D01*
X15550995Y-12836077D02*
X15590995Y-12876077D01*
X15590995Y-12836077D02*
X15550995Y-12876077D01*
X15556498Y-11730551D02*
X15596498Y-11770551D01*
X15596498Y-11730551D02*
X15556498Y-11770551D01*
X15580001Y-13370000D02*
X15620001Y-13410000D01*
X15620001Y-13370000D02*
X15580001Y-13410000D01*
X15592000Y-14267000D02*
X15632000Y-14307000D01*
X15632000Y-14267000D02*
X15592000Y-14307000D01*
X15596834Y-11651830D02*
X15636834Y-11691830D01*
X15636834Y-11651830D02*
X15596834Y-11691830D01*
X15612496Y-12983492D02*
X15652496Y-13023492D01*
X15652496Y-12983492D02*
X15612496Y-13023492D01*
X15644997Y-13101827D02*
X15684997Y-13141827D01*
X15684997Y-13101827D02*
X15644997Y-13141827D01*
X15664000Y-10989000D02*
X15704000Y-11029000D01*
X15704000Y-10989000D02*
X15664000Y-11029000D01*
X15668000Y-13555001D02*
X15708000Y-13595001D01*
X15708000Y-13555001D02*
X15668000Y-13595001D01*
X15741999Y-10794800D02*
X15781999Y-10834800D01*
X15781999Y-10794800D02*
X15741999Y-10834800D01*
X15745000Y-14080000D02*
X15785000Y-14120000D01*
X15785000Y-14080000D02*
X15745000Y-14120000D01*
X15791000Y-12219000D02*
X15831000Y-12259000D01*
X15831000Y-12219000D02*
X15791000Y-12259000D01*
X15824139Y-13292254D02*
X15864139Y-13332254D01*
X15864139Y-13292254D02*
X15824139Y-13332254D01*
X15839999Y-13396506D02*
X15879999Y-13436506D01*
X15879999Y-13396506D02*
X15839999Y-13436506D01*
X15894000Y-13947000D02*
X15934000Y-13987000D01*
X15934000Y-13947000D02*
X15894000Y-13987000D01*
X15912498Y-11216330D02*
X15952498Y-11256330D01*
X15952498Y-11216330D02*
X15912498Y-11256330D01*
X15915001Y-10992167D02*
X15955001Y-11032167D01*
X15955001Y-10992167D02*
X15915001Y-11032167D01*
X15916640Y-12322418D02*
X15956640Y-12362418D01*
X15956640Y-12322418D02*
X15916640Y-12362418D01*
X15965499Y-13838830D02*
X16005499Y-13878830D01*
X16005499Y-13838830D02*
X15965499Y-13878830D01*
X15965499Y-14478588D02*
X16005499Y-14518588D01*
X16005499Y-14478588D02*
X15965499Y-14518588D01*
X15983996Y-12891200D02*
X16023996Y-12931200D01*
X16023996Y-12891200D02*
X15983996Y-12931200D01*
X15984001Y-12989000D02*
X16024001Y-13029000D01*
X16024001Y-12989000D02*
X15984001Y-13029000D01*
X15998330Y-13067707D02*
X16038330Y-13107707D01*
X16038330Y-13067707D02*
X15998330Y-13107707D01*
X16013000Y-13353000D02*
X16053000Y-13393000D01*
X16053000Y-13353000D02*
X16013000Y-13393000D01*
X16020000Y-11070000D02*
X16060000Y-11110000D01*
X16060000Y-11070000D02*
X16020000Y-11110000D01*
X16028000Y-15302000D02*
X16068000Y-15342000D01*
X16068000Y-15302000D02*
X16028000Y-15342000D01*
X16032000Y-13185000D02*
X16072000Y-13225000D01*
X16072000Y-13185000D02*
X16032000Y-13225000D01*
X16044000Y-13439000D02*
X16084000Y-13479000D01*
X16084000Y-13439000D02*
X16044000Y-13479000D01*
X16045848Y-12396622D02*
X16085848Y-12436622D01*
X16085848Y-12396622D02*
X16045848Y-12436622D01*
X16046497Y-12786225D02*
X16086497Y-12826225D01*
X16086497Y-12786225D02*
X16046497Y-12826225D01*
X16069000Y-11522000D02*
X16109000Y-11562000D01*
X16109000Y-11522000D02*
X16069000Y-11562000D01*
X16092000Y-15113000D02*
X16132000Y-15153000D01*
X16132000Y-15113000D02*
X16092000Y-15153000D01*
X16111089Y-12442924D02*
X16151089Y-12482924D01*
X16151089Y-12442924D02*
X16111089Y-12482924D01*
X16154501Y-13632474D02*
X16194501Y-13672474D01*
X16194501Y-13632474D02*
X16154501Y-13672474D01*
X16154501Y-14889000D02*
X16194501Y-14929000D01*
X16194501Y-14889000D02*
X16154501Y-14929000D01*
X16172581Y-12560311D02*
X16212581Y-12600311D01*
X16212581Y-12560311D02*
X16172581Y-12600311D01*
X14873000Y-10497000D02*
G75*
G03X14873000Y-10497000I-40000J0D01*
G01*
X14873000Y-10751000D02*
G75*
G03X14873000Y-10751000I-40000J0D01*
G01*
X14873000Y-11005000D02*
G75*
G03X14873000Y-11005000I-40000J0D01*
G01*
X14873000Y-11259000D02*
G75*
G03X14873000Y-11259000I-40000J0D01*
G01*
X14873000Y-11513000D02*
G75*
G03X14873000Y-11513000I-40000J0D01*
G01*
X14873000Y-11767000D02*
G75*
G03X14873000Y-11767000I-40000J0D01*
G01*
X14873000Y-12021000D02*
G75*
G03X14873000Y-12021000I-40000J0D01*
G01*
X14873000Y-12275000D02*
G75*
G03X14873000Y-12275000I-40000J0D01*
G01*
X14873000Y-12529000D02*
G75*
G03X14873000Y-12529000I-40000J0D01*
G01*
X14873000Y-12783000D02*
G75*
G03X14873000Y-12783000I-40000J0D01*
G01*
X14873000Y-13037000D02*
G75*
G03X14873000Y-13037000I-40000J0D01*
G01*
X14873000Y-13291000D02*
G75*
G03X14873000Y-13291000I-40000J0D01*
G01*
X14873000Y-13545000D02*
G75*
G03X14873000Y-13545000I-40000J0D01*
G01*
X14873000Y-13799000D02*
G75*
G03X14873000Y-13799000I-40000J0D01*
G01*
X14873000Y-14053000D02*
G75*
G03X14873000Y-14053000I-40000J0D01*
G01*
X14873000Y-14307000D02*
G75*
G03X14873000Y-14307000I-40000J0D01*
G01*
X14873000Y-14561000D02*
G75*
G03X14873000Y-14561000I-40000J0D01*
G01*
X14873000Y-14815000D02*
G75*
G03X14873000Y-14815000I-40000J0D01*
G01*
X14873000Y-15069000D02*
G75*
G03X14873000Y-15069000I-40000J0D01*
G01*
X14873000Y-15323000D02*
G75*
G03X14873000Y-15323000I-40000J0D01*
G01*
X14873000Y-15577000D02*
G75*
G03X14873000Y-15577000I-40000J0D01*
G01*
X16397000Y-10497000D02*
G75*
G03X16397000Y-10497000I-40000J0D01*
G01*
X16397000Y-10751000D02*
G75*
G03X16397000Y-10751000I-40000J0D01*
G01*
X16397000Y-11005000D02*
G75*
G03X16397000Y-11005000I-40000J0D01*
G01*
X16397000Y-11259000D02*
G75*
G03X16397000Y-11259000I-40000J0D01*
G01*
X16397000Y-11513000D02*
G75*
G03X16397000Y-11513000I-40000J0D01*
G01*
X16397000Y-11767000D02*
G75*
G03X16397000Y-11767000I-40000J0D01*
G01*
X16397000Y-12021000D02*
G75*
G03X16397000Y-12021000I-40000J0D01*
G01*
X16397000Y-12275000D02*
G75*
G03X16397000Y-12275000I-40000J0D01*
G01*
X16397000Y-12529000D02*
G75*
G03X16397000Y-12529000I-40000J0D01*
G01*
X16397000Y-12783000D02*
G75*
G03X16397000Y-12783000I-40000J0D01*
G01*
X16397000Y-13037000D02*
G75*
G03X16397000Y-13037000I-40000J0D01*
G01*
X16397000Y-13291000D02*
G75*
G03X16397000Y-13291000I-40000J0D01*
G01*
X16397000Y-13545000D02*
G75*
G03X16397000Y-13545000I-40000J0D01*
G01*
X16397000Y-13799000D02*
G75*
G03X16397000Y-13799000I-40000J0D01*
G01*
X16397000Y-14053000D02*
G75*
G03X16397000Y-14053000I-40000J0D01*
G01*
X16397000Y-14307000D02*
G75*
G03X16397000Y-14307000I-40000J0D01*
G01*
X16397000Y-14561000D02*
G75*
G03X16397000Y-14561000I-40000J0D01*
G01*
X16397000Y-14815000D02*
G75*
G03X16397000Y-14815000I-40000J0D01*
G01*
X16397000Y-15069000D02*
G75*
G03X16397000Y-15069000I-40000J0D01*
G01*
X16397000Y-15323000D02*
G75*
G03X16397000Y-15323000I-40000J0D01*
G01*
X16397000Y-15577000D02*
G75*
G03X16397000Y-15577000I-40000J0D01*
G01*
D13*
X14983928Y-16212214D02*
X14983928Y-15912214D01*
X15055357Y-15912214D01*
X15098214Y-15926500D01*
X15126786Y-15955071D01*
X15141071Y-15983643D01*
X15155357Y-16040786D01*
X15155357Y-16083643D01*
X15141071Y-16140786D01*
X15126786Y-16169357D01*
X15098214Y-16197929D01*
X15055357Y-16212214D01*
X14983928Y-16212214D01*
X15283928Y-16212214D02*
X15283928Y-16012214D01*
X15283928Y-16069357D02*
X15298214Y-16040786D01*
X15312500Y-16026500D01*
X15341071Y-16012214D01*
X15369643Y-16012214D01*
X15469643Y-16212214D02*
X15469643Y-16012214D01*
X15469643Y-15912214D02*
X15455357Y-15926500D01*
X15469643Y-15940786D01*
X15483928Y-15926500D01*
X15469643Y-15912214D01*
X15469643Y-15940786D01*
X15655357Y-16212214D02*
X15626786Y-16197929D01*
X15612500Y-16169357D01*
X15612500Y-15912214D01*
X15812500Y-16212214D02*
X15783928Y-16197929D01*
X15769643Y-16169357D01*
X15769643Y-15912214D01*
X16155357Y-16212214D02*
X16155357Y-15912214D01*
X16255357Y-16126500D01*
X16355357Y-15912214D01*
X16355357Y-16212214D01*
X16626786Y-16212214D02*
X16626786Y-16055071D01*
X16612500Y-16026500D01*
X16583928Y-16012214D01*
X16526786Y-16012214D01*
X16498214Y-16026500D01*
X16626786Y-16197929D02*
X16598214Y-16212214D01*
X16526786Y-16212214D01*
X16498214Y-16197929D01*
X16483928Y-16169357D01*
X16483928Y-16140786D01*
X16498214Y-16112214D01*
X16526786Y-16097929D01*
X16598214Y-16097929D01*
X16626786Y-16083643D01*
X16769643Y-16012214D02*
X16769643Y-16312214D01*
X16769643Y-16026500D02*
X16798214Y-16012214D01*
X16855357Y-16012214D01*
X16883929Y-16026500D01*
X16898214Y-16040786D01*
X16912500Y-16069357D01*
X16912500Y-16155071D01*
X16898214Y-16183643D01*
X16883929Y-16197929D01*
X16855357Y-16212214D01*
X16798214Y-16212214D01*
X16769643Y-16197929D01*
X17041071Y-16183643D02*
X17055357Y-16197929D01*
X17041071Y-16212214D01*
X17026786Y-16197929D01*
X17041071Y-16183643D01*
X17041071Y-16212214D01*
X17041071Y-16026500D02*
X17055357Y-16040786D01*
X17041071Y-16055071D01*
X17026786Y-16040786D01*
X17041071Y-16026500D01*
X17041071Y-16055071D01*
X14672500Y-16686500D02*
X14712500Y-16726500D01*
X14712500Y-16686500D02*
X14672500Y-16726500D01*
X15041071Y-16542214D02*
X15069643Y-16542214D01*
X15098214Y-16556500D01*
X15112500Y-16570786D01*
X15126786Y-16599357D01*
X15141071Y-16656500D01*
X15141071Y-16727929D01*
X15126786Y-16785072D01*
X15112500Y-16813643D01*
X15098214Y-16827929D01*
X15069643Y-16842214D01*
X15041071Y-16842214D01*
X15012500Y-16827929D01*
X14998214Y-16813643D01*
X14983928Y-16785072D01*
X14969643Y-16727929D01*
X14969643Y-16656500D01*
X14983928Y-16599357D01*
X14998214Y-16570786D01*
X15012500Y-16556500D01*
X15041071Y-16542214D01*
X15269643Y-16813643D02*
X15283928Y-16827929D01*
X15269643Y-16842214D01*
X15255357Y-16827929D01*
X15269643Y-16813643D01*
X15269643Y-16842214D01*
X15541071Y-16642214D02*
X15541071Y-16842214D01*
X15469643Y-16527929D02*
X15398214Y-16742214D01*
X15583928Y-16742214D01*
X15755357Y-16542214D02*
X15783928Y-16542214D01*
X15812500Y-16556500D01*
X15826786Y-16570786D01*
X15841071Y-16599357D01*
X15855357Y-16656500D01*
X15855357Y-16727929D01*
X15841071Y-16785072D01*
X15826786Y-16813643D01*
X15812500Y-16827929D01*
X15783928Y-16842214D01*
X15755357Y-16842214D01*
X15726786Y-16827929D01*
X15712500Y-16813643D01*
X15698214Y-16785072D01*
X15683928Y-16727929D01*
X15683928Y-16656500D01*
X15698214Y-16599357D01*
X15712500Y-16570786D01*
X15726786Y-16556500D01*
X15755357Y-16542214D01*
X15983928Y-16842214D02*
X15983928Y-16642214D01*
X15983928Y-16670786D02*
X15998214Y-16656500D01*
X16026786Y-16642214D01*
X16069643Y-16642214D01*
X16098214Y-16656500D01*
X16112500Y-16685071D01*
X16112500Y-16842214D01*
X16112500Y-16685071D02*
X16126786Y-16656500D01*
X16155357Y-16642214D01*
X16198214Y-16642214D01*
X16226786Y-16656500D01*
X16241071Y-16685071D01*
X16241071Y-16842214D01*
X16383928Y-16842214D02*
X16383928Y-16642214D01*
X16383928Y-16670786D02*
X16398214Y-16656500D01*
X16426786Y-16642214D01*
X16469643Y-16642214D01*
X16498214Y-16656500D01*
X16512500Y-16685071D01*
X16512500Y-16842214D01*
X16512500Y-16685071D02*
X16526786Y-16656500D01*
X16555357Y-16642214D01*
X16598214Y-16642214D01*
X16626786Y-16656500D01*
X16641071Y-16685071D01*
X16641071Y-16842214D01*
X17226786Y-16527929D02*
X16969643Y-16913643D01*
X17612500Y-16542214D02*
X17641071Y-16542214D01*
X17669643Y-16556500D01*
X17683928Y-16570786D01*
X17698214Y-16599357D01*
X17712500Y-16656500D01*
X17712500Y-16727929D01*
X17698214Y-16785072D01*
X17683928Y-16813643D01*
X17669643Y-16827929D01*
X17641071Y-16842214D01*
X17612500Y-16842214D01*
X17583928Y-16827929D01*
X17569643Y-16813643D01*
X17555357Y-16785072D01*
X17541071Y-16727929D01*
X17541071Y-16656500D01*
X17555357Y-16599357D01*
X17569643Y-16570786D01*
X17583928Y-16556500D01*
X17612500Y-16542214D01*
X17841071Y-16813643D02*
X17855357Y-16827929D01*
X17841071Y-16842214D01*
X17826786Y-16827929D01*
X17841071Y-16813643D01*
X17841071Y-16842214D01*
X18041071Y-16542214D02*
X18069643Y-16542214D01*
X18098214Y-16556500D01*
X18112500Y-16570786D01*
X18126786Y-16599357D01*
X18141071Y-16656500D01*
X18141071Y-16727929D01*
X18126786Y-16785072D01*
X18112500Y-16813643D01*
X18098214Y-16827929D01*
X18069643Y-16842214D01*
X18041071Y-16842214D01*
X18012500Y-16827929D01*
X17998214Y-16813643D01*
X17983928Y-16785072D01*
X17969643Y-16727929D01*
X17969643Y-16656500D01*
X17983928Y-16599357D01*
X17998214Y-16570786D01*
X18012500Y-16556500D01*
X18041071Y-16542214D01*
X18426786Y-16842214D02*
X18255357Y-16842214D01*
X18341071Y-16842214D02*
X18341071Y-16542214D01*
X18312500Y-16585071D01*
X18283928Y-16613643D01*
X18255357Y-16627929D01*
X18683928Y-16542214D02*
X18626786Y-16542214D01*
X18598214Y-16556500D01*
X18583928Y-16570786D01*
X18555357Y-16613643D01*
X18541071Y-16670786D01*
X18541071Y-16785072D01*
X18555357Y-16813643D01*
X18569643Y-16827929D01*
X18598214Y-16842214D01*
X18655357Y-16842214D01*
X18683928Y-16827929D01*
X18698214Y-16813643D01*
X18712500Y-16785072D01*
X18712500Y-16713643D01*
X18698214Y-16685071D01*
X18683928Y-16670786D01*
X18655357Y-16656500D01*
X18598214Y-16656500D01*
X18569643Y-16670786D01*
X18555357Y-16685071D01*
X18541071Y-16713643D01*
X18826786Y-16542214D02*
X18826786Y-16599357D01*
X18941071Y-16542214D02*
X18941071Y-16599357D01*
X19383928Y-16956500D02*
X19369643Y-16942214D01*
X19341071Y-16899357D01*
X19326786Y-16870786D01*
X19312500Y-16827929D01*
X19298214Y-16756500D01*
X19298214Y-16699357D01*
X19312500Y-16627929D01*
X19326786Y-16585071D01*
X19341071Y-16556500D01*
X19369643Y-16513643D01*
X19383928Y-16499357D01*
X19641071Y-16542214D02*
X19498214Y-16542214D01*
X19483928Y-16685071D01*
X19498214Y-16670786D01*
X19526786Y-16656500D01*
X19598214Y-16656500D01*
X19626786Y-16670786D01*
X19641071Y-16685071D01*
X19655357Y-16713643D01*
X19655357Y-16785072D01*
X19641071Y-16813643D01*
X19626786Y-16827929D01*
X19598214Y-16842214D01*
X19526786Y-16842214D01*
X19498214Y-16827929D01*
X19483928Y-16813643D01*
X19755357Y-16542214D02*
X19955357Y-16542214D01*
X19826786Y-16842214D01*
X20298214Y-16842214D02*
X20298214Y-16542214D01*
X20426786Y-16842214D02*
X20426786Y-16685071D01*
X20412500Y-16656500D01*
X20383928Y-16642214D01*
X20341071Y-16642214D01*
X20312500Y-16656500D01*
X20298214Y-16670786D01*
X20612500Y-16842214D02*
X20583928Y-16827929D01*
X20569643Y-16813643D01*
X20555357Y-16785072D01*
X20555357Y-16699357D01*
X20569643Y-16670786D01*
X20583928Y-16656500D01*
X20612500Y-16642214D01*
X20655357Y-16642214D01*
X20683928Y-16656500D01*
X20698214Y-16670786D01*
X20712500Y-16699357D01*
X20712500Y-16785072D01*
X20698214Y-16813643D01*
X20683928Y-16827929D01*
X20655357Y-16842214D01*
X20612500Y-16842214D01*
X20883928Y-16842214D02*
X20855357Y-16827929D01*
X20841071Y-16799357D01*
X20841071Y-16542214D01*
X21112500Y-16827929D02*
X21083929Y-16842214D01*
X21026786Y-16842214D01*
X20998214Y-16827929D01*
X20983929Y-16799357D01*
X20983929Y-16685071D01*
X20998214Y-16656500D01*
X21026786Y-16642214D01*
X21083929Y-16642214D01*
X21112500Y-16656500D01*
X21126786Y-16685071D01*
X21126786Y-16713643D01*
X20983929Y-16742214D01*
X21241071Y-16827929D02*
X21269643Y-16842214D01*
X21326786Y-16842214D01*
X21355357Y-16827929D01*
X21369643Y-16799357D01*
X21369643Y-16785072D01*
X21355357Y-16756500D01*
X21326786Y-16742214D01*
X21283929Y-16742214D01*
X21255357Y-16727929D01*
X21241071Y-16699357D01*
X21241071Y-16685071D01*
X21255357Y-16656500D01*
X21283929Y-16642214D01*
X21326786Y-16642214D01*
X21355357Y-16656500D01*
X21469643Y-16956500D02*
X21483929Y-16942214D01*
X21512500Y-16899357D01*
X21526786Y-16870786D01*
X21541071Y-16827929D01*
X21555357Y-16756500D01*
X21555357Y-16699357D01*
X21541071Y-16627929D01*
X21526786Y-16585071D01*
X21512500Y-16556500D01*
X21483929Y-16513643D01*
X21469643Y-16499357D01*
X14712500Y-17102500D02*
G75*
G03X14712500Y-17102500I-40000J0D01*
G01*
X15041071Y-16938214D02*
X15069643Y-16938214D01*
X15098214Y-16952500D01*
X15112500Y-16966786D01*
X15126786Y-16995357D01*
X15141071Y-17052500D01*
X15141071Y-17123929D01*
X15126786Y-17181072D01*
X15112500Y-17209643D01*
X15098214Y-17223929D01*
X15069643Y-17238214D01*
X15041071Y-17238214D01*
X15012500Y-17223929D01*
X14998214Y-17209643D01*
X14983928Y-17181072D01*
X14969643Y-17123929D01*
X14969643Y-17052500D01*
X14983928Y-16995357D01*
X14998214Y-16966786D01*
X15012500Y-16952500D01*
X15041071Y-16938214D01*
X15269643Y-17209643D02*
X15283928Y-17223929D01*
X15269643Y-17238214D01*
X15255357Y-17223929D01*
X15269643Y-17209643D01*
X15269643Y-17238214D01*
X15455357Y-17066786D02*
X15426786Y-17052500D01*
X15412500Y-17038214D01*
X15398214Y-17009643D01*
X15398214Y-16995357D01*
X15412500Y-16966786D01*
X15426786Y-16952500D01*
X15455357Y-16938214D01*
X15512500Y-16938214D01*
X15541071Y-16952500D01*
X15555357Y-16966786D01*
X15569643Y-16995357D01*
X15569643Y-17009643D01*
X15555357Y-17038214D01*
X15541071Y-17052500D01*
X15512500Y-17066786D01*
X15455357Y-17066786D01*
X15426786Y-17081072D01*
X15412500Y-17095357D01*
X15398214Y-17123929D01*
X15398214Y-17181072D01*
X15412500Y-17209643D01*
X15426786Y-17223929D01*
X15455357Y-17238214D01*
X15512500Y-17238214D01*
X15541071Y-17223929D01*
X15555357Y-17209643D01*
X15569643Y-17181072D01*
X15569643Y-17123929D01*
X15555357Y-17095357D01*
X15541071Y-17081072D01*
X15512500Y-17066786D01*
X15755357Y-16938214D02*
X15783928Y-16938214D01*
X15812500Y-16952500D01*
X15826786Y-16966786D01*
X15841071Y-16995357D01*
X15855357Y-17052500D01*
X15855357Y-17123929D01*
X15841071Y-17181072D01*
X15826786Y-17209643D01*
X15812500Y-17223929D01*
X15783928Y-17238214D01*
X15755357Y-17238214D01*
X15726786Y-17223929D01*
X15712500Y-17209643D01*
X15698214Y-17181072D01*
X15683928Y-17123929D01*
X15683928Y-17052500D01*
X15698214Y-16995357D01*
X15712500Y-16966786D01*
X15726786Y-16952500D01*
X15755357Y-16938214D01*
X15983928Y-17238214D02*
X15983928Y-17038214D01*
X15983928Y-17066786D02*
X15998214Y-17052500D01*
X16026786Y-17038214D01*
X16069643Y-17038214D01*
X16098214Y-17052500D01*
X16112500Y-17081072D01*
X16112500Y-17238214D01*
X16112500Y-17081072D02*
X16126786Y-17052500D01*
X16155357Y-17038214D01*
X16198214Y-17038214D01*
X16226786Y-17052500D01*
X16241071Y-17081072D01*
X16241071Y-17238214D01*
X16383928Y-17238214D02*
X16383928Y-17038214D01*
X16383928Y-17066786D02*
X16398214Y-17052500D01*
X16426786Y-17038214D01*
X16469643Y-17038214D01*
X16498214Y-17052500D01*
X16512500Y-17081072D01*
X16512500Y-17238214D01*
X16512500Y-17081072D02*
X16526786Y-17052500D01*
X16555357Y-17038214D01*
X16598214Y-17038214D01*
X16626786Y-17052500D01*
X16641071Y-17081072D01*
X16641071Y-17238214D01*
X17226786Y-16923929D02*
X16969643Y-17309643D01*
X17612500Y-16938214D02*
X17641071Y-16938214D01*
X17669643Y-16952500D01*
X17683928Y-16966786D01*
X17698214Y-16995357D01*
X17712500Y-17052500D01*
X17712500Y-17123929D01*
X17698214Y-17181072D01*
X17683928Y-17209643D01*
X17669643Y-17223929D01*
X17641071Y-17238214D01*
X17612500Y-17238214D01*
X17583928Y-17223929D01*
X17569643Y-17209643D01*
X17555357Y-17181072D01*
X17541071Y-17123929D01*
X17541071Y-17052500D01*
X17555357Y-16995357D01*
X17569643Y-16966786D01*
X17583928Y-16952500D01*
X17612500Y-16938214D01*
X17841071Y-17209643D02*
X17855357Y-17223929D01*
X17841071Y-17238214D01*
X17826786Y-17223929D01*
X17841071Y-17209643D01*
X17841071Y-17238214D01*
X18041071Y-16938214D02*
X18069643Y-16938214D01*
X18098214Y-16952500D01*
X18112500Y-16966786D01*
X18126786Y-16995357D01*
X18141071Y-17052500D01*
X18141071Y-17123929D01*
X18126786Y-17181072D01*
X18112500Y-17209643D01*
X18098214Y-17223929D01*
X18069643Y-17238214D01*
X18041071Y-17238214D01*
X18012500Y-17223929D01*
X17998214Y-17209643D01*
X17983928Y-17181072D01*
X17969643Y-17123929D01*
X17969643Y-17052500D01*
X17983928Y-16995357D01*
X17998214Y-16966786D01*
X18012500Y-16952500D01*
X18041071Y-16938214D01*
X18241071Y-16938214D02*
X18426786Y-16938214D01*
X18326786Y-17052500D01*
X18369643Y-17052500D01*
X18398214Y-17066786D01*
X18412500Y-17081072D01*
X18426786Y-17109643D01*
X18426786Y-17181072D01*
X18412500Y-17209643D01*
X18398214Y-17223929D01*
X18369643Y-17238214D01*
X18283928Y-17238214D01*
X18255357Y-17223929D01*
X18241071Y-17209643D01*
X18712500Y-17238214D02*
X18541071Y-17238214D01*
X18626786Y-17238214D02*
X18626786Y-16938214D01*
X18598214Y-16981072D01*
X18569643Y-17009643D01*
X18541071Y-17023929D01*
X18826786Y-16938214D02*
X18826786Y-16995357D01*
X18941071Y-16938214D02*
X18941071Y-16995357D01*
X19383928Y-17352500D02*
X19369643Y-17338214D01*
X19341071Y-17295357D01*
X19326786Y-17266786D01*
X19312500Y-17223929D01*
X19298214Y-17152500D01*
X19298214Y-17095357D01*
X19312500Y-17023929D01*
X19326786Y-16981072D01*
X19341071Y-16952500D01*
X19369643Y-16909643D01*
X19383928Y-16895357D01*
X19626786Y-17038214D02*
X19626786Y-17238214D01*
X19555357Y-16923929D02*
X19483928Y-17138214D01*
X19669643Y-17138214D01*
X19769643Y-16966786D02*
X19783928Y-16952500D01*
X19812500Y-16938214D01*
X19883928Y-16938214D01*
X19912500Y-16952500D01*
X19926786Y-16966786D01*
X19941071Y-16995357D01*
X19941071Y-17023929D01*
X19926786Y-17066786D01*
X19755357Y-17238214D01*
X19941071Y-17238214D01*
X20298214Y-17238214D02*
X20298214Y-16938214D01*
X20426786Y-17238214D02*
X20426786Y-17081072D01*
X20412500Y-17052500D01*
X20383928Y-17038214D01*
X20341071Y-17038214D01*
X20312500Y-17052500D01*
X20298214Y-17066786D01*
X20612500Y-17238214D02*
X20583928Y-17223929D01*
X20569643Y-17209643D01*
X20555357Y-17181072D01*
X20555357Y-17095357D01*
X20569643Y-17066786D01*
X20583928Y-17052500D01*
X20612500Y-17038214D01*
X20655357Y-17038214D01*
X20683928Y-17052500D01*
X20698214Y-17066786D01*
X20712500Y-17095357D01*
X20712500Y-17181072D01*
X20698214Y-17209643D01*
X20683928Y-17223929D01*
X20655357Y-17238214D01*
X20612500Y-17238214D01*
X20883928Y-17238214D02*
X20855357Y-17223929D01*
X20841071Y-17195357D01*
X20841071Y-16938214D01*
X21112500Y-17223929D02*
X21083929Y-17238214D01*
X21026786Y-17238214D01*
X20998214Y-17223929D01*
X20983929Y-17195357D01*
X20983929Y-17081072D01*
X20998214Y-17052500D01*
X21026786Y-17038214D01*
X21083929Y-17038214D01*
X21112500Y-17052500D01*
X21126786Y-17081072D01*
X21126786Y-17109643D01*
X20983929Y-17138214D01*
X21241071Y-17223929D02*
X21269643Y-17238214D01*
X21326786Y-17238214D01*
X21355357Y-17223929D01*
X21369643Y-17195357D01*
X21369643Y-17181072D01*
X21355357Y-17152500D01*
X21326786Y-17138214D01*
X21283929Y-17138214D01*
X21255357Y-17123929D01*
X21241071Y-17095357D01*
X21241071Y-17081072D01*
X21255357Y-17052500D01*
X21283929Y-17038214D01*
X21326786Y-17038214D01*
X21355357Y-17052500D01*
X21469643Y-17352500D02*
X21483929Y-17338214D01*
X21512500Y-17295357D01*
X21526786Y-17266786D01*
X21541071Y-17223929D01*
X21555357Y-17152500D01*
X21555357Y-17095357D01*
X21541071Y-17023929D01*
X21526786Y-16981072D01*
X21512500Y-16952500D01*
X21483929Y-16909643D01*
X21469643Y-16895357D01*
M02*
