G04 #@! TF.FileFunction,Copper,L2,Bot,Signal*
%FSLAX46Y46*%
G04 Gerber Fmt 4.6, Leading zero omitted, Abs format (unit mm)*
G04 Created by KiCad (PCBNEW 4.0.7-e2-6376~58~ubuntu16.04.1) date Tue Aug 20 20:43:04 2024*
%MOMM*%
%LPD*%
G01*
G04 APERTURE LIST*
%ADD10C,0.100000*%
%ADD11R,1.500000X1.250000*%
%ADD12R,1.600000X1.600000*%
%ADD13O,1.600000X1.600000*%
%ADD14O,1.400000X1.600000*%
%ADD15C,0.600000*%
%ADD16C,0.400000*%
%ADD17C,0.250000*%
%ADD18C,0.254000*%
G04 APERTURE END LIST*
D10*
D11*
X156130000Y-132540000D03*
X153630000Y-132540000D03*
D12*
X148330000Y-104970000D03*
D13*
X163570000Y-155770000D03*
X148330000Y-107510000D03*
X163570000Y-153230000D03*
X148330000Y-110050000D03*
X163570000Y-150690000D03*
X148330000Y-112590000D03*
X163570000Y-148150000D03*
X148330000Y-115130000D03*
X163570000Y-145610000D03*
X148330000Y-117670000D03*
X163570000Y-143070000D03*
X148330000Y-120210000D03*
X163570000Y-140530000D03*
X148330000Y-122750000D03*
X163570000Y-137990000D03*
X148330000Y-125290000D03*
D14*
X163570000Y-135450000D03*
X148330000Y-127830000D03*
X163570000Y-132910000D03*
X148330000Y-130370000D03*
X163570000Y-130370000D03*
X148330000Y-132910000D03*
X163570000Y-127830000D03*
X148330000Y-135450000D03*
D13*
X163570000Y-125290000D03*
X148330000Y-137990000D03*
X163570000Y-122750000D03*
X148330000Y-140530000D03*
X163570000Y-120210000D03*
X148330000Y-143070000D03*
X163570000Y-117670000D03*
X148330000Y-145610000D03*
X163570000Y-115130000D03*
X148330000Y-148150000D03*
X163570000Y-112590000D03*
X148330000Y-150690000D03*
X163570000Y-110050000D03*
X148330000Y-153230000D03*
X163570000Y-107510000D03*
X148330000Y-155770000D03*
X163570000Y-104970000D03*
D15*
X155300000Y-135900000D03*
X156324957Y-130034921D03*
X159366397Y-123424176D03*
X157619990Y-108147998D03*
X154820000Y-155830000D03*
X154770000Y-138670000D03*
X153678930Y-152594990D03*
X153870000Y-138740000D03*
X158441388Y-133122544D03*
X156840000Y-110090000D03*
X152431082Y-149715010D03*
X152930000Y-138670000D03*
X159324979Y-112363296D03*
X160039965Y-129112004D03*
X152062237Y-147439139D03*
X152120000Y-138420000D03*
X150410000Y-146050000D03*
X150420000Y-136230000D03*
X156168341Y-116718305D03*
X156649968Y-131218275D03*
X154549990Y-134550000D03*
X156120000Y-142870000D03*
X156000010Y-133900000D03*
X157650000Y-141000000D03*
X158110000Y-122390000D03*
X156880000Y-135750010D03*
X158599990Y-134165063D03*
X159140000Y-139670000D03*
X154900556Y-127056165D03*
X160520000Y-132050000D03*
X154142375Y-127311469D03*
X160183300Y-130877075D03*
X153442582Y-126923772D03*
X152525457Y-127378442D03*
X160040010Y-130090000D03*
X151970000Y-132230000D03*
X155325931Y-127733716D03*
X154564990Y-121352338D03*
X155709946Y-128560771D03*
X155190000Y-120400000D03*
X155764979Y-117505507D03*
X155704549Y-129360764D03*
X159854990Y-138588300D03*
X159854990Y-144985881D03*
X160664975Y-128062246D03*
X160890000Y-115420000D03*
X161745010Y-136524738D03*
X161745010Y-149090000D03*
X161925806Y-125803114D03*
X161120000Y-151330000D03*
X160640000Y-134590000D03*
X161310889Y-124629242D03*
X160400000Y-110900000D03*
X160480000Y-153220000D03*
X160330000Y-133730000D03*
X160658484Y-124166224D03*
X159350010Y-110121666D03*
D16*
X157655009Y-131384991D02*
X156500000Y-132540000D01*
X157655009Y-129732533D02*
X157655009Y-131384991D01*
X157650000Y-124871112D02*
X157650000Y-129727524D01*
X157195022Y-124416134D02*
X157650000Y-124871112D01*
X157195022Y-116025022D02*
X157195022Y-124416134D01*
X155830000Y-114660000D02*
X157195022Y-116025022D01*
X157650000Y-129727524D02*
X157655009Y-129732533D01*
X156500000Y-132540000D02*
X156130000Y-132540000D01*
X155300000Y-133060000D02*
X155300000Y-135900000D01*
X155820000Y-132540000D02*
X155300000Y-133060000D01*
X156130000Y-132540000D02*
X155820000Y-132540000D01*
X155830000Y-107450000D02*
X155830000Y-114660000D01*
X158276400Y-105003600D02*
X155830000Y-107450000D01*
X162150000Y-105003600D02*
X158276400Y-105003600D01*
X163741100Y-105003600D02*
X162150000Y-105003600D01*
X153755000Y-132540000D02*
X156260079Y-130034921D01*
X156024958Y-130334920D02*
X156324957Y-130034921D01*
X151240000Y-135119878D02*
X156024958Y-130334920D01*
X151240000Y-153064700D02*
X151240000Y-135119878D01*
X148501100Y-155803600D02*
X151240000Y-153064700D01*
X153630000Y-132540000D02*
X153755000Y-132540000D01*
X156260079Y-130034921D02*
X156324957Y-130034921D01*
D17*
X159366397Y-122999912D02*
X159366397Y-123424176D01*
X159366397Y-120934978D02*
X159366397Y-122999912D01*
X158685020Y-109213028D02*
X158685020Y-120253601D01*
X157619990Y-108147998D02*
X158685020Y-109213028D01*
X158685020Y-120253601D02*
X159366397Y-120934978D01*
X154770000Y-138670000D02*
X154770000Y-155780000D01*
X154770000Y-155780000D02*
X154820000Y-155830000D01*
X153870000Y-152403920D02*
X153678930Y-152594990D01*
X153870000Y-138740000D02*
X153870000Y-152403920D01*
X158441388Y-133122544D02*
X158741387Y-132822545D01*
X158225009Y-120430000D02*
X158225009Y-111475009D01*
X158741387Y-132822545D02*
X158741387Y-120946378D01*
X158741387Y-120946378D02*
X158225009Y-120430000D01*
X158225009Y-111475009D02*
X157139999Y-110389999D01*
X157139999Y-110389999D02*
X156840000Y-110090000D01*
X152731081Y-149415011D02*
X152431082Y-149715010D01*
X152930000Y-149216092D02*
X152731081Y-149415011D01*
X152930000Y-138670000D02*
X152930000Y-149216092D01*
X159217304Y-112470971D02*
X159324979Y-112363296D01*
X159217304Y-120149473D02*
X159217304Y-112470971D01*
X160039965Y-120972134D02*
X159217304Y-120149473D01*
X160039965Y-123859741D02*
X160039965Y-120972134D01*
X160039965Y-129112004D02*
X159739966Y-128812005D01*
X159739966Y-124159740D02*
X160039965Y-123859741D01*
X159739966Y-128812005D02*
X159739966Y-124159740D01*
X152120000Y-138420000D02*
X152120000Y-147381376D01*
X152120000Y-147381376D02*
X152062237Y-147439139D01*
X150400000Y-136674264D02*
X150400000Y-146040000D01*
X150400000Y-146040000D02*
X150410000Y-146050000D01*
X150420000Y-136230000D02*
X150420000Y-136654264D01*
X150420000Y-136654264D02*
X150400000Y-136674264D01*
X156949967Y-130918276D02*
X156949967Y-124913556D01*
X156468340Y-117018304D02*
X156168341Y-116718305D01*
X156949967Y-124913556D02*
X156670011Y-124633600D01*
X156670011Y-117219975D02*
X156468340Y-117018304D01*
X156649968Y-131218275D02*
X156949967Y-130918276D01*
X156670011Y-124633600D02*
X156670011Y-117219975D01*
X156120000Y-142870000D02*
X156120000Y-138860000D01*
X156120000Y-138860000D02*
X154549990Y-137289990D01*
X154549990Y-137289990D02*
X154549990Y-134974264D01*
X154549990Y-134974264D02*
X154549990Y-134550000D01*
X157650000Y-141000000D02*
X157650000Y-139753590D01*
X157650000Y-139753590D02*
X156000010Y-138103600D01*
X156000010Y-138103600D02*
X156000010Y-134324264D01*
X156000010Y-134324264D02*
X156000010Y-133900000D01*
X158180020Y-123115301D02*
X158180020Y-122460020D01*
X158180020Y-122460020D02*
X158110000Y-122390000D01*
X156880000Y-135750010D02*
X157800010Y-134830000D01*
X157800010Y-134830000D02*
X157800010Y-131982467D01*
X157800010Y-131982467D02*
X158180020Y-131602457D01*
X158180020Y-131602457D02*
X158180020Y-123115301D01*
X158599990Y-134589327D02*
X158599990Y-134165063D01*
X158599990Y-139129990D02*
X158599990Y-134589327D01*
X159140000Y-139670000D02*
X158599990Y-139129990D01*
X148501100Y-125323600D02*
X153270000Y-125323600D01*
X154900556Y-127056165D02*
X154900556Y-126631901D01*
X154900556Y-126631901D02*
X153592255Y-125323600D01*
X153592255Y-125323600D02*
X153270000Y-125323600D01*
X163741100Y-135483600D02*
X163741100Y-135383600D01*
X160520000Y-132162500D02*
X160520000Y-132050000D01*
X163741100Y-135383600D02*
X160520000Y-132162500D01*
X154142375Y-126647373D02*
X154142375Y-126887205D01*
X151823600Y-126069989D02*
X153564991Y-126069989D01*
X154142375Y-126887205D02*
X154142375Y-127311469D01*
X148501100Y-127863600D02*
X150029989Y-127863600D01*
X153564991Y-126069989D02*
X154142375Y-126647373D01*
X150029989Y-127863600D02*
X151823600Y-126069989D01*
X162791100Y-132943600D02*
X160724575Y-130877075D01*
X163741100Y-132943600D02*
X162791100Y-132943600D01*
X160724575Y-130877075D02*
X160607564Y-130877075D01*
X160607564Y-130877075D02*
X160183300Y-130877075D01*
X153142583Y-126623773D02*
X153442582Y-126923772D01*
X151843456Y-127135441D02*
X152355124Y-126623773D01*
X151843456Y-128011244D02*
X151843456Y-127135441D01*
X152355124Y-126623773D02*
X153142583Y-126623773D01*
X149451100Y-130403600D02*
X151843456Y-128011244D01*
X151843456Y-128011244D02*
X151843456Y-127965705D01*
X148501100Y-130403600D02*
X149451100Y-130403600D01*
X148501100Y-132843600D02*
X152335295Y-129009405D01*
X148501100Y-132943600D02*
X148501100Y-132843600D01*
X152335295Y-129009405D02*
X152335295Y-127328659D01*
X160340009Y-129790001D02*
X160040010Y-130090000D01*
X163741100Y-127863600D02*
X162266410Y-127863600D01*
X162266410Y-127863600D02*
X160340009Y-129790001D01*
X148501100Y-135483600D02*
X148501100Y-135383600D01*
X148501100Y-135383600D02*
X151654700Y-132230000D01*
X151654700Y-132230000D02*
X151970000Y-132230000D01*
X155325931Y-127733716D02*
X155544956Y-127514691D01*
X155544956Y-127514691D02*
X155544956Y-126279966D01*
X155544956Y-126279966D02*
X154564990Y-125300000D01*
X154564990Y-125300000D02*
X154564990Y-121352338D01*
X155709946Y-128560771D02*
X155994967Y-128275750D01*
X155994967Y-128275750D02*
X155994967Y-126004967D01*
X155994967Y-126004967D02*
X155190000Y-125200000D01*
X155190000Y-125200000D02*
X155190000Y-120824264D01*
X155190000Y-120824264D02*
X155190000Y-120400000D01*
X156444978Y-125750000D02*
X156220000Y-125525022D01*
X156220000Y-117960528D02*
X155764979Y-117505507D01*
X156220000Y-125525022D02*
X156220000Y-117960528D01*
X155704549Y-129360764D02*
X156128813Y-129360764D01*
X156128813Y-129360764D02*
X156444978Y-129044599D01*
X156444978Y-129044599D02*
X156444978Y-125750000D01*
X159854990Y-144985881D02*
X159854990Y-138588300D01*
X160890000Y-125934030D02*
X160664975Y-126159055D01*
X161941602Y-124882428D02*
X160890000Y-125934030D01*
X161564084Y-125259946D02*
X160890000Y-125934030D01*
X160890000Y-115420000D02*
X161941602Y-116471602D01*
X161941602Y-116471602D02*
X161941602Y-124882428D01*
X160664975Y-127637982D02*
X160664975Y-128062246D01*
X160664975Y-126159055D02*
X160664975Y-127637982D01*
X161745010Y-149090000D02*
X161745010Y-136524738D01*
X162225805Y-125503115D02*
X161925806Y-125803114D01*
X162391613Y-113973087D02*
X162391613Y-125337307D01*
X163741100Y-112623600D02*
X162391613Y-113973087D01*
X162391613Y-125337307D02*
X162225805Y-125503115D01*
X161120000Y-151330000D02*
X161120000Y-135070000D01*
X161120000Y-135070000D02*
X161040000Y-134990000D01*
X160640000Y-134590000D02*
X161040000Y-134990000D01*
X161310889Y-120932769D02*
X161310889Y-124204978D01*
X160400000Y-114164311D02*
X160134311Y-114430000D01*
X161310889Y-124204978D02*
X161310889Y-124629242D01*
X160134311Y-119756191D02*
X161310889Y-120932769D01*
X160134311Y-114430000D02*
X160134311Y-119756191D01*
X160400000Y-110900000D02*
X160400000Y-114164311D01*
X160014999Y-137581410D02*
X160433589Y-138000000D01*
X160480000Y-138046411D02*
X160433589Y-138000000D01*
X160480000Y-153220000D02*
X160480000Y-138046411D01*
X160480000Y-150690000D02*
X160480000Y-153220000D01*
X160330000Y-133730000D02*
X160014999Y-134045001D01*
X160014999Y-134045001D02*
X160014999Y-137581410D01*
X160658484Y-123741960D02*
X160658484Y-124166224D01*
X160658484Y-120954243D02*
X160658484Y-123741960D01*
X159680044Y-119975803D02*
X160658484Y-120954243D01*
X159680044Y-113046046D02*
X159680044Y-119975803D01*
X159949989Y-112776101D02*
X159680044Y-113046046D01*
X159949989Y-112038271D02*
X159949989Y-112776101D01*
X159350010Y-110121666D02*
X159350010Y-111438292D01*
X159350010Y-111438292D02*
X159949989Y-112038271D01*
D18*
G36*
X153367521Y-127858707D02*
X153612048Y-128103661D01*
X153955576Y-128246307D01*
X154327542Y-128246631D01*
X154497222Y-128176521D01*
X154532814Y-128262659D01*
X154774994Y-128505262D01*
X154774784Y-128745938D01*
X154860901Y-128954357D01*
X154769711Y-129173965D01*
X154769387Y-129545931D01*
X154911432Y-129889707D01*
X155174222Y-130152956D01*
X155517750Y-130295602D01*
X155889716Y-130295926D01*
X156189967Y-130171865D01*
X156189967Y-130396672D01*
X156121025Y-130425158D01*
X155857776Y-130687948D01*
X155715130Y-131031476D01*
X155714924Y-131267560D01*
X155380000Y-131267560D01*
X155144683Y-131311838D01*
X154928559Y-131450910D01*
X154882031Y-131519006D01*
X154739698Y-131376673D01*
X154506309Y-131280000D01*
X153915750Y-131280000D01*
X153757000Y-131438750D01*
X153757000Y-132413000D01*
X153777000Y-132413000D01*
X153777000Y-132667000D01*
X153757000Y-132667000D01*
X153757000Y-133641250D01*
X153915750Y-133800000D01*
X153977855Y-133800000D01*
X153757798Y-134019673D01*
X153615152Y-134363201D01*
X153614828Y-134735167D01*
X153756873Y-135078943D01*
X153789990Y-135112118D01*
X153789990Y-137289990D01*
X153847842Y-137580829D01*
X153997702Y-137805111D01*
X153684833Y-137804838D01*
X153474316Y-137891822D01*
X153460327Y-137877808D01*
X153116799Y-137735162D01*
X152757181Y-137734849D01*
X152650327Y-137627808D01*
X152306799Y-137485162D01*
X151934833Y-137484838D01*
X151591057Y-137626883D01*
X151327808Y-137889673D01*
X151185162Y-138233201D01*
X151184838Y-138605167D01*
X151326883Y-138948943D01*
X151360000Y-138982118D01*
X151360000Y-146819014D01*
X151270045Y-146908812D01*
X151127399Y-147252340D01*
X151127075Y-147624306D01*
X151269120Y-147968082D01*
X151531910Y-148231331D01*
X151875438Y-148373977D01*
X152170000Y-148374234D01*
X152170000Y-148811215D01*
X151902139Y-148921893D01*
X151638890Y-149184683D01*
X151496244Y-149528211D01*
X151495920Y-149900177D01*
X151637965Y-150243953D01*
X151900755Y-150507202D01*
X152244283Y-150649848D01*
X152616249Y-150650172D01*
X152960025Y-150508127D01*
X153110000Y-150358413D01*
X153110000Y-151841790D01*
X152886738Y-152064663D01*
X152744092Y-152408191D01*
X152743768Y-152780157D01*
X152885813Y-153123933D01*
X153148603Y-153387182D01*
X153492131Y-153529828D01*
X153864097Y-153530152D01*
X154010000Y-153469866D01*
X154010000Y-155342559D01*
X153885162Y-155643201D01*
X153884838Y-156015167D01*
X154026883Y-156358943D01*
X154289673Y-156622192D01*
X154414357Y-156673965D01*
X149399791Y-156685427D01*
X149561041Y-156507423D01*
X149721904Y-156119039D01*
X149599915Y-155897000D01*
X148457000Y-155897000D01*
X148457000Y-155917000D01*
X148203000Y-155917000D01*
X148203000Y-155897000D01*
X148183000Y-155897000D01*
X148183000Y-155643000D01*
X148203000Y-155643000D01*
X148203000Y-155623000D01*
X148457000Y-155623000D01*
X148457000Y-155643000D01*
X149599915Y-155643000D01*
X149721904Y-155420961D01*
X149561041Y-155032577D01*
X149185134Y-154617611D01*
X148968297Y-154514986D01*
X149372811Y-154244698D01*
X149683880Y-153779151D01*
X149793113Y-153230000D01*
X149683880Y-152680849D01*
X149372811Y-152215302D01*
X148990725Y-151960000D01*
X149372811Y-151704698D01*
X149683880Y-151239151D01*
X149793113Y-150690000D01*
X149683880Y-150140849D01*
X149372811Y-149675302D01*
X148990725Y-149420000D01*
X149372811Y-149164698D01*
X149683880Y-148699151D01*
X149793113Y-148150000D01*
X149683880Y-147600849D01*
X149372811Y-147135302D01*
X148990725Y-146880000D01*
X149372811Y-146624698D01*
X149535305Y-146381509D01*
X149616883Y-146578943D01*
X149879673Y-146842192D01*
X150223201Y-146984838D01*
X150595167Y-146985162D01*
X150938943Y-146843117D01*
X151202192Y-146580327D01*
X151344838Y-146236799D01*
X151345162Y-145864833D01*
X151203117Y-145521057D01*
X151160000Y-145477865D01*
X151160000Y-136812428D01*
X151212192Y-136760327D01*
X151354838Y-136416799D01*
X151355162Y-136044833D01*
X151213117Y-135701057D01*
X150950327Y-135437808D01*
X150606799Y-135295162D01*
X150234833Y-135294838D01*
X149891057Y-135436883D01*
X149644044Y-135683465D01*
X149665000Y-135578113D01*
X149665000Y-135321887D01*
X149660457Y-135299045D01*
X151794654Y-133164848D01*
X152155167Y-133165162D01*
X152245000Y-133128044D01*
X152245000Y-133291310D01*
X152341673Y-133524699D01*
X152520302Y-133703327D01*
X152753691Y-133800000D01*
X153344250Y-133800000D01*
X153503000Y-133641250D01*
X153503000Y-132667000D01*
X153483000Y-132667000D01*
X153483000Y-132413000D01*
X153503000Y-132413000D01*
X153503000Y-131438750D01*
X153344250Y-131280000D01*
X152753691Y-131280000D01*
X152520302Y-131376673D01*
X152471243Y-131425731D01*
X152156799Y-131295162D01*
X151784833Y-131294838D01*
X151441057Y-131436883D01*
X151321727Y-131556005D01*
X151117299Y-131692599D01*
X149638485Y-133171413D01*
X149665000Y-133038113D01*
X149665000Y-132781887D01*
X149660457Y-132759045D01*
X152872696Y-129546806D01*
X153037443Y-129300244D01*
X153095295Y-129009405D01*
X153095295Y-128130735D01*
X153317649Y-127908769D01*
X153338447Y-127858682D01*
X153367521Y-127858707D01*
X153367521Y-127858707D01*
G37*
X153367521Y-127858707D02*
X153612048Y-128103661D01*
X153955576Y-128246307D01*
X154327542Y-128246631D01*
X154497222Y-128176521D01*
X154532814Y-128262659D01*
X154774994Y-128505262D01*
X154774784Y-128745938D01*
X154860901Y-128954357D01*
X154769711Y-129173965D01*
X154769387Y-129545931D01*
X154911432Y-129889707D01*
X155174222Y-130152956D01*
X155517750Y-130295602D01*
X155889716Y-130295926D01*
X156189967Y-130171865D01*
X156189967Y-130396672D01*
X156121025Y-130425158D01*
X155857776Y-130687948D01*
X155715130Y-131031476D01*
X155714924Y-131267560D01*
X155380000Y-131267560D01*
X155144683Y-131311838D01*
X154928559Y-131450910D01*
X154882031Y-131519006D01*
X154739698Y-131376673D01*
X154506309Y-131280000D01*
X153915750Y-131280000D01*
X153757000Y-131438750D01*
X153757000Y-132413000D01*
X153777000Y-132413000D01*
X153777000Y-132667000D01*
X153757000Y-132667000D01*
X153757000Y-133641250D01*
X153915750Y-133800000D01*
X153977855Y-133800000D01*
X153757798Y-134019673D01*
X153615152Y-134363201D01*
X153614828Y-134735167D01*
X153756873Y-135078943D01*
X153789990Y-135112118D01*
X153789990Y-137289990D01*
X153847842Y-137580829D01*
X153997702Y-137805111D01*
X153684833Y-137804838D01*
X153474316Y-137891822D01*
X153460327Y-137877808D01*
X153116799Y-137735162D01*
X152757181Y-137734849D01*
X152650327Y-137627808D01*
X152306799Y-137485162D01*
X151934833Y-137484838D01*
X151591057Y-137626883D01*
X151327808Y-137889673D01*
X151185162Y-138233201D01*
X151184838Y-138605167D01*
X151326883Y-138948943D01*
X151360000Y-138982118D01*
X151360000Y-146819014D01*
X151270045Y-146908812D01*
X151127399Y-147252340D01*
X151127075Y-147624306D01*
X151269120Y-147968082D01*
X151531910Y-148231331D01*
X151875438Y-148373977D01*
X152170000Y-148374234D01*
X152170000Y-148811215D01*
X151902139Y-148921893D01*
X151638890Y-149184683D01*
X151496244Y-149528211D01*
X151495920Y-149900177D01*
X151637965Y-150243953D01*
X151900755Y-150507202D01*
X152244283Y-150649848D01*
X152616249Y-150650172D01*
X152960025Y-150508127D01*
X153110000Y-150358413D01*
X153110000Y-151841790D01*
X152886738Y-152064663D01*
X152744092Y-152408191D01*
X152743768Y-152780157D01*
X152885813Y-153123933D01*
X153148603Y-153387182D01*
X153492131Y-153529828D01*
X153864097Y-153530152D01*
X154010000Y-153469866D01*
X154010000Y-155342559D01*
X153885162Y-155643201D01*
X153884838Y-156015167D01*
X154026883Y-156358943D01*
X154289673Y-156622192D01*
X154414357Y-156673965D01*
X149399791Y-156685427D01*
X149561041Y-156507423D01*
X149721904Y-156119039D01*
X149599915Y-155897000D01*
X148457000Y-155897000D01*
X148457000Y-155917000D01*
X148203000Y-155917000D01*
X148203000Y-155897000D01*
X148183000Y-155897000D01*
X148183000Y-155643000D01*
X148203000Y-155643000D01*
X148203000Y-155623000D01*
X148457000Y-155623000D01*
X148457000Y-155643000D01*
X149599915Y-155643000D01*
X149721904Y-155420961D01*
X149561041Y-155032577D01*
X149185134Y-154617611D01*
X148968297Y-154514986D01*
X149372811Y-154244698D01*
X149683880Y-153779151D01*
X149793113Y-153230000D01*
X149683880Y-152680849D01*
X149372811Y-152215302D01*
X148990725Y-151960000D01*
X149372811Y-151704698D01*
X149683880Y-151239151D01*
X149793113Y-150690000D01*
X149683880Y-150140849D01*
X149372811Y-149675302D01*
X148990725Y-149420000D01*
X149372811Y-149164698D01*
X149683880Y-148699151D01*
X149793113Y-148150000D01*
X149683880Y-147600849D01*
X149372811Y-147135302D01*
X148990725Y-146880000D01*
X149372811Y-146624698D01*
X149535305Y-146381509D01*
X149616883Y-146578943D01*
X149879673Y-146842192D01*
X150223201Y-146984838D01*
X150595167Y-146985162D01*
X150938943Y-146843117D01*
X151202192Y-146580327D01*
X151344838Y-146236799D01*
X151345162Y-145864833D01*
X151203117Y-145521057D01*
X151160000Y-145477865D01*
X151160000Y-136812428D01*
X151212192Y-136760327D01*
X151354838Y-136416799D01*
X151355162Y-136044833D01*
X151213117Y-135701057D01*
X150950327Y-135437808D01*
X150606799Y-135295162D01*
X150234833Y-135294838D01*
X149891057Y-135436883D01*
X149644044Y-135683465D01*
X149665000Y-135578113D01*
X149665000Y-135321887D01*
X149660457Y-135299045D01*
X151794654Y-133164848D01*
X152155167Y-133165162D01*
X152245000Y-133128044D01*
X152245000Y-133291310D01*
X152341673Y-133524699D01*
X152520302Y-133703327D01*
X152753691Y-133800000D01*
X153344250Y-133800000D01*
X153503000Y-133641250D01*
X153503000Y-132667000D01*
X153483000Y-132667000D01*
X153483000Y-132413000D01*
X153503000Y-132413000D01*
X153503000Y-131438750D01*
X153344250Y-131280000D01*
X152753691Y-131280000D01*
X152520302Y-131376673D01*
X152471243Y-131425731D01*
X152156799Y-131295162D01*
X151784833Y-131294838D01*
X151441057Y-131436883D01*
X151321727Y-131556005D01*
X151117299Y-131692599D01*
X149638485Y-133171413D01*
X149665000Y-133038113D01*
X149665000Y-132781887D01*
X149660457Y-132759045D01*
X152872696Y-129546806D01*
X153037443Y-129300244D01*
X153095295Y-129009405D01*
X153095295Y-128130735D01*
X153317649Y-127908769D01*
X153338447Y-127858682D01*
X153367521Y-127858707D01*
M02*
