G04 #@! TF.FileFunction,Copper,L1,Top,Signal*
%FSLAX46Y46*%
G04 Gerber Fmt 4.6, Leading zero omitted, Abs format (unit mm)*
G04 Created by KiCad (PCBNEW 4.0.7-e2-6376~58~ubuntu16.04.1) date Tue Aug 20 20:43:04 2024*
%MOMM*%
%LPD*%
G01*
G04 APERTURE LIST*
%ADD10C,0.100000*%
%ADD11R,1.500000X1.300000*%
%ADD12R,1.600000X1.600000*%
%ADD13O,1.600000X1.600000*%
%ADD14O,1.400000X1.600000*%
%ADD15R,1.500000X0.550000*%
%ADD16R,0.550000X1.500000*%
%ADD17C,0.600000*%
%ADD18C,0.400000*%
%ADD19C,0.250000*%
G04 APERTURE END LIST*
D10*
D11*
X153162000Y-105918000D03*
X155862000Y-105918000D03*
X153160000Y-108210000D03*
X155860000Y-108210000D03*
D12*
X148330000Y-104970000D03*
D13*
X163570000Y-155770000D03*
X148330000Y-107510000D03*
X163570000Y-153230000D03*
X148330000Y-110050000D03*
X163570000Y-150690000D03*
X148330000Y-112590000D03*
X163570000Y-148150000D03*
X148330000Y-115130000D03*
X163570000Y-145610000D03*
X148330000Y-117670000D03*
X163570000Y-143070000D03*
X148330000Y-120210000D03*
X163570000Y-140530000D03*
X148330000Y-122750000D03*
X163570000Y-137990000D03*
X148330000Y-125290000D03*
D14*
X163570000Y-135450000D03*
X148330000Y-127830000D03*
X163570000Y-132910000D03*
X148330000Y-130370000D03*
X163570000Y-130370000D03*
X148330000Y-132910000D03*
X163570000Y-127830000D03*
X148330000Y-135450000D03*
D13*
X163570000Y-125290000D03*
X148330000Y-137990000D03*
X163570000Y-122750000D03*
X148330000Y-140530000D03*
X163570000Y-120210000D03*
X148330000Y-143070000D03*
X163570000Y-117670000D03*
X148330000Y-145610000D03*
X163570000Y-115130000D03*
X148330000Y-148150000D03*
X163570000Y-112590000D03*
X148330000Y-150690000D03*
X163570000Y-110050000D03*
X148330000Y-153230000D03*
X163570000Y-107510000D03*
X148330000Y-155770000D03*
X163570000Y-104970000D03*
D15*
X161800000Y-135350000D03*
X161800000Y-134550000D03*
X161800000Y-133750000D03*
X161800000Y-132950000D03*
X161800000Y-132150000D03*
X161800000Y-131350000D03*
X161800000Y-130550000D03*
X161800000Y-129750000D03*
X161800000Y-128950000D03*
X161800000Y-128150000D03*
X161800000Y-127350000D03*
D16*
X160100000Y-125650000D03*
X159300000Y-125650000D03*
X158500000Y-125650000D03*
X157700000Y-125650000D03*
X156900000Y-125650000D03*
X156100000Y-125650000D03*
X155300000Y-125650000D03*
X154500000Y-125650000D03*
X153700000Y-125650000D03*
X152900000Y-125650000D03*
X152100000Y-125650000D03*
D15*
X150400000Y-127350000D03*
X150400000Y-128150000D03*
X150400000Y-128950000D03*
X150400000Y-129750000D03*
X150400000Y-130550000D03*
X150400000Y-131350000D03*
X150400000Y-132150000D03*
X150400000Y-132950000D03*
X150400000Y-133750000D03*
X150400000Y-134550000D03*
X150400000Y-135350000D03*
D16*
X152100000Y-137050000D03*
X152900000Y-137050000D03*
X153700000Y-137050000D03*
X154500000Y-137050000D03*
X155300000Y-137050000D03*
X156100000Y-137050000D03*
X156900000Y-137050000D03*
X157700000Y-137050000D03*
X158500000Y-137050000D03*
X159300000Y-137050000D03*
X160100000Y-137050000D03*
D17*
X155300000Y-135900000D03*
X156324957Y-130034921D03*
X159366397Y-123424176D03*
X157619990Y-108147998D03*
X154820000Y-155830000D03*
X154770000Y-138670000D03*
X153678930Y-152594990D03*
X153870000Y-138740000D03*
X158441388Y-133122544D03*
X156840000Y-110090000D03*
X152431082Y-149715010D03*
X152930000Y-138670000D03*
X159324979Y-112363296D03*
X160039965Y-129112004D03*
X152062237Y-147439139D03*
X152120000Y-138420000D03*
X150410000Y-146050000D03*
X150420000Y-136230000D03*
X156168341Y-116718305D03*
X156649968Y-131218275D03*
X154549990Y-134550000D03*
X156120000Y-142870000D03*
X156000010Y-133900000D03*
X157650000Y-141000000D03*
X158110000Y-122390000D03*
X156880000Y-135750010D03*
X158599990Y-134165063D03*
X159140000Y-139670000D03*
X154900556Y-127056165D03*
X160520000Y-132050000D03*
X154142375Y-127311469D03*
X160183300Y-130877075D03*
X153442582Y-126923772D03*
X152525457Y-127378442D03*
X160040010Y-130090000D03*
X151970000Y-132230000D03*
X155325931Y-127733716D03*
X154564990Y-121352338D03*
X155709946Y-128560771D03*
X155190000Y-120400000D03*
X155764979Y-117505507D03*
X155704549Y-129360764D03*
X159854990Y-138588300D03*
X159854990Y-144985881D03*
X160664975Y-128062246D03*
X160890000Y-115420000D03*
X161745010Y-136524738D03*
X161745010Y-149090000D03*
X161925806Y-125803114D03*
X161120000Y-151330000D03*
X160640000Y-134590000D03*
X161310889Y-124629242D03*
X160400000Y-110900000D03*
X160480000Y-153220000D03*
X160330000Y-133730000D03*
X160658484Y-124166224D03*
X159350010Y-110121666D03*
D18*
X155300000Y-135900000D02*
X155300000Y-137050000D01*
X156900000Y-125650000D02*
X156900000Y-129459878D01*
X156900000Y-129459878D02*
X156624956Y-129734922D01*
X156624956Y-129734922D02*
X156324957Y-130034921D01*
D19*
X148501100Y-105003600D02*
X153147600Y-105003600D01*
X153147600Y-105003600D02*
X153162000Y-105018000D01*
X153162000Y-105018000D02*
X153162000Y-105918000D01*
X158925824Y-123424176D02*
X158942133Y-123424176D01*
X157700000Y-124650000D02*
X158925824Y-123424176D01*
X158942133Y-123424176D02*
X159366397Y-123424176D01*
X157700000Y-125650000D02*
X157700000Y-124650000D01*
X155860000Y-108210000D02*
X157557988Y-108210000D01*
X157557988Y-108210000D02*
X157619990Y-108147998D01*
X155862000Y-105918000D02*
X155862000Y-108208000D01*
X155862000Y-108208000D02*
X155860000Y-108210000D01*
X148501100Y-107543600D02*
X152493600Y-107543600D01*
X152493600Y-107543600D02*
X153160000Y-108210000D01*
X154820000Y-155830000D02*
X163714700Y-155830000D01*
X163714700Y-155830000D02*
X163741100Y-155803600D01*
X154500000Y-137050000D02*
X154500000Y-138400000D01*
X154500000Y-138400000D02*
X154770000Y-138670000D01*
X154103194Y-152594990D02*
X153678930Y-152594990D01*
X161941120Y-152594990D02*
X154103194Y-152594990D01*
X162609730Y-153263600D02*
X161941120Y-152594990D01*
X163741100Y-153263600D02*
X162609730Y-153263600D01*
X153700000Y-137050000D02*
X153700000Y-138570000D01*
X153700000Y-138570000D02*
X153870000Y-138740000D01*
X158613932Y-132950000D02*
X158441388Y-133122544D01*
X161800000Y-132950000D02*
X158613932Y-132950000D01*
X148501100Y-110083600D02*
X156833600Y-110083600D01*
X156833600Y-110083600D02*
X156840000Y-110090000D01*
X162732510Y-149715010D02*
X152855346Y-149715010D01*
X163741100Y-150723600D02*
X162732510Y-149715010D01*
X152855346Y-149715010D02*
X152431082Y-149715010D01*
X152900000Y-137050000D02*
X152900000Y-138640000D01*
X152900000Y-138640000D02*
X152930000Y-138670000D01*
X148501100Y-112623600D02*
X159064675Y-112623600D01*
X159064675Y-112623600D02*
X159324979Y-112363296D01*
X160201969Y-128950000D02*
X160039965Y-129112004D01*
X161800000Y-128950000D02*
X160201969Y-128950000D01*
X152062237Y-147439139D02*
X162996639Y-147439139D01*
X162996639Y-147439139D02*
X163741100Y-148183600D01*
X152100000Y-137050000D02*
X152100000Y-138400000D01*
X152100000Y-138400000D02*
X152120000Y-138420000D01*
X150410000Y-146050000D02*
X163334700Y-146050000D01*
X163334700Y-146050000D02*
X163741100Y-145643600D01*
X150400000Y-135350000D02*
X150400000Y-136210000D01*
X150400000Y-136210000D02*
X150420000Y-136230000D01*
X155140231Y-129750000D02*
X156308507Y-130918276D01*
X150400000Y-129750000D02*
X155140231Y-129750000D01*
X156308507Y-130918276D02*
X156349969Y-130918276D01*
X156349969Y-130918276D02*
X156649968Y-131218275D01*
X148501100Y-117703600D02*
X149486395Y-116718305D01*
X155744077Y-116718305D02*
X156168341Y-116718305D01*
X149486395Y-116718305D02*
X155744077Y-116718305D01*
X150400000Y-134550000D02*
X154549990Y-134550000D01*
X156120000Y-142870000D02*
X163507500Y-142870000D01*
X163507500Y-142870000D02*
X163741100Y-143103600D01*
X155850010Y-133750000D02*
X156000010Y-133900000D01*
X150400000Y-133750000D02*
X155850010Y-133750000D01*
X157650000Y-141000000D02*
X163304700Y-141000000D01*
X163304700Y-141000000D02*
X163741100Y-140563600D01*
X158110000Y-122390000D02*
X148690000Y-122390000D01*
X148690000Y-122390000D02*
X148330000Y-122750000D01*
X157895032Y-122406049D02*
X148878651Y-122406049D01*
X148878651Y-122406049D02*
X148501100Y-122783600D01*
X156900000Y-135770010D02*
X156880000Y-135750010D01*
X156900000Y-137050000D02*
X156900000Y-135770010D01*
X159140000Y-139670000D02*
X162094700Y-139670000D01*
X162094700Y-139670000D02*
X163741100Y-138023600D01*
X159140000Y-139670000D02*
X160940000Y-139670000D01*
X158299991Y-133865064D02*
X158599990Y-134165063D01*
X157384927Y-132950000D02*
X158299991Y-133865064D01*
X150400000Y-132950000D02*
X157384927Y-132950000D01*
X155200555Y-126756166D02*
X154900556Y-127056165D01*
X155300000Y-125650000D02*
X155300000Y-126656721D01*
X155300000Y-126656721D02*
X155200555Y-126756166D01*
X160520000Y-132050000D02*
X161700000Y-132050000D01*
X161700000Y-132050000D02*
X161800000Y-132150000D01*
X154500000Y-125650000D02*
X154500000Y-126524220D01*
X154142375Y-126887205D02*
X154142375Y-127311469D01*
X154500000Y-126524220D02*
X154142375Y-126881845D01*
X154142375Y-126881845D02*
X154142375Y-126887205D01*
X160483299Y-130577076D02*
X160183300Y-130877075D01*
X160510375Y-130550000D02*
X160483299Y-130577076D01*
X161800000Y-130550000D02*
X160510375Y-130550000D01*
X161800000Y-130550000D02*
X162090000Y-130550000D01*
X153700000Y-125650000D02*
X153700000Y-126666354D01*
X153700000Y-126666354D02*
X153442582Y-126923772D01*
X161800000Y-129750000D02*
X163087500Y-129750000D01*
X163087500Y-129750000D02*
X163741100Y-130403600D01*
X152525457Y-126927133D02*
X152525457Y-126954178D01*
X152900000Y-126552590D02*
X152525457Y-126927133D01*
X152525457Y-126954178D02*
X152525457Y-127378442D01*
X152900000Y-125650000D02*
X152900000Y-126552590D01*
X152900000Y-125650000D02*
X152900000Y-126339690D01*
X158250010Y-131880000D02*
X159740011Y-130389999D01*
X150400000Y-130550000D02*
X151400000Y-130550000D01*
X159740011Y-130389999D02*
X160040010Y-130090000D01*
X152730000Y-131880000D02*
X158250010Y-131880000D01*
X151400000Y-130550000D02*
X152730000Y-131880000D01*
X151970000Y-132230000D02*
X150480000Y-132230000D01*
X150480000Y-132230000D02*
X150400000Y-132150000D01*
X153245002Y-123504998D02*
X152100000Y-124650000D01*
X158208591Y-123504998D02*
X153245002Y-123504998D01*
X158914415Y-122799174D02*
X158208591Y-123504998D01*
X161216674Y-122799174D02*
X158914415Y-122799174D01*
X163741100Y-125323600D02*
X161216674Y-122799174D01*
X152100000Y-125650000D02*
X152100000Y-124650000D01*
X152100000Y-124650000D02*
X152310000Y-124440000D01*
X157700000Y-137050000D02*
X157700000Y-138050000D01*
X157700000Y-138050000D02*
X157720000Y-138070000D01*
X150357500Y-139880000D02*
X148501100Y-138023600D01*
X157720000Y-138070000D02*
X155910000Y-139880000D01*
X155910000Y-139880000D02*
X150357500Y-139880000D01*
X152225455Y-128003444D02*
X154631939Y-128003444D01*
X154631939Y-128003444D02*
X154901667Y-127733716D01*
X150400000Y-127350000D02*
X151572011Y-127350000D01*
X151572011Y-127350000D02*
X152225455Y-128003444D01*
X154901667Y-127733716D02*
X155325931Y-127733716D01*
X162309838Y-121352338D02*
X154989254Y-121352338D01*
X154989254Y-121352338D02*
X154564990Y-121352338D01*
X163741100Y-122783600D02*
X162309838Y-121352338D01*
X156990000Y-139530000D02*
X155956400Y-140563600D01*
X155956400Y-140563600D02*
X148501100Y-140563600D01*
X157020000Y-139530000D02*
X156990000Y-139530000D01*
X158500000Y-137050000D02*
X158500000Y-138050000D01*
X158500000Y-138050000D02*
X157020000Y-139530000D01*
X155190000Y-120400000D02*
X163584700Y-120400000D01*
X163584700Y-120400000D02*
X163741100Y-120243600D01*
X155602630Y-128453455D02*
X155709946Y-128560771D01*
X150400000Y-128150000D02*
X151735600Y-128150000D01*
X151735600Y-128150000D02*
X152039055Y-128453455D01*
X152039055Y-128453455D02*
X155602630Y-128453455D01*
X159300000Y-138220000D02*
X154416400Y-143103600D01*
X154416400Y-143103600D02*
X148501100Y-143103600D01*
X159300000Y-137050000D02*
X159300000Y-138220000D01*
X163741100Y-117703600D02*
X155963072Y-117703600D01*
X155963072Y-117703600D02*
X155764979Y-117505507D01*
X155584935Y-129360764D02*
X155704549Y-129360764D01*
X150400000Y-128950000D02*
X155174171Y-128950000D01*
X155174171Y-128950000D02*
X155584935Y-129360764D01*
X160100000Y-137050000D02*
X160100000Y-138343290D01*
X160100000Y-138343290D02*
X159854990Y-138588300D01*
X149632470Y-145643600D02*
X150290189Y-144985881D01*
X148501100Y-145643600D02*
X149632470Y-145643600D01*
X159430726Y-144985881D02*
X159854990Y-144985881D01*
X150290189Y-144985881D02*
X159430726Y-144985881D01*
X161800000Y-128150000D02*
X160752729Y-128150000D01*
X160752729Y-128150000D02*
X160664975Y-128062246D01*
X160890000Y-115420000D02*
X163484700Y-115420000D01*
X163484700Y-115420000D02*
X163741100Y-115163600D01*
X161800000Y-136469748D02*
X161745010Y-136524738D01*
X161800000Y-135350000D02*
X161800000Y-136469748D01*
X161320746Y-149090000D02*
X161745010Y-149090000D01*
X149407500Y-149090000D02*
X161320746Y-149090000D01*
X148501100Y-148183600D02*
X149407500Y-149090000D01*
X161800000Y-125928920D02*
X161925806Y-125803114D01*
X161800000Y-127350000D02*
X161800000Y-125928920D01*
X161120000Y-151330000D02*
X149107500Y-151330000D01*
X149107500Y-151330000D02*
X148501100Y-150723600D01*
X161800000Y-134550000D02*
X160680000Y-134550000D01*
X160680000Y-134550000D02*
X160640000Y-134590000D01*
X161310889Y-124964111D02*
X161310889Y-124629242D01*
X160625000Y-125650000D02*
X161310889Y-124964111D01*
X160100000Y-125650000D02*
X160625000Y-125650000D01*
X160400000Y-110900000D02*
X161216400Y-110083600D01*
X161216400Y-110083600D02*
X163741100Y-110083600D01*
X148544700Y-153220000D02*
X148501100Y-153263600D01*
X160480000Y-153220000D02*
X148544700Y-153220000D01*
X161800000Y-133750000D02*
X160350000Y-133750000D01*
X160350000Y-133750000D02*
X160330000Y-133730000D01*
X159300000Y-124650000D02*
X159783776Y-124166224D01*
X160234220Y-124166224D02*
X160658484Y-124166224D01*
X159783776Y-124166224D02*
X160234220Y-124166224D01*
X159300000Y-125650000D02*
X159300000Y-124650000D01*
X159650009Y-109821667D02*
X159350010Y-110121666D01*
X161928076Y-107543600D02*
X159650009Y-109821667D01*
X163741100Y-107543600D02*
X161928076Y-107543600D01*
M02*
