G04 #@! TF.FileFunction,Soldermask,Top*
%FSLAX46Y46*%
G04 Gerber Fmt 4.6, Leading zero omitted, Abs format (unit mm)*
G04 Created by KiCad (PCBNEW 4.0.7-e2-6376~58~ubuntu16.04.1) date Tue Aug 20 20:43:04 2024*
%MOMM*%
%LPD*%
G01*
G04 APERTURE LIST*
%ADD10C,0.100000*%
%ADD11R,1.900000X1.700000*%
%ADD12R,2.000000X2.000000*%
%ADD13O,2.000000X2.000000*%
%ADD14O,1.800000X2.000000*%
%ADD15R,1.900000X0.950000*%
%ADD16R,0.950000X1.900000*%
G04 APERTURE END LIST*
D10*
D11*
X153162000Y-105918000D03*
X155862000Y-105918000D03*
X153160000Y-108210000D03*
X155860000Y-108210000D03*
D12*
X148330000Y-104970000D03*
D13*
X163570000Y-155770000D03*
X148330000Y-107510000D03*
X163570000Y-153230000D03*
X148330000Y-110050000D03*
X163570000Y-150690000D03*
X148330000Y-112590000D03*
X163570000Y-148150000D03*
X148330000Y-115130000D03*
X163570000Y-145610000D03*
X148330000Y-117670000D03*
X163570000Y-143070000D03*
X148330000Y-120210000D03*
X163570000Y-140530000D03*
X148330000Y-122750000D03*
X163570000Y-137990000D03*
X148330000Y-125290000D03*
D14*
X163570000Y-135450000D03*
X148330000Y-127830000D03*
X163570000Y-132910000D03*
X148330000Y-130370000D03*
X163570000Y-130370000D03*
X148330000Y-132910000D03*
X163570000Y-127830000D03*
X148330000Y-135450000D03*
D13*
X163570000Y-125290000D03*
X148330000Y-137990000D03*
X163570000Y-122750000D03*
X148330000Y-140530000D03*
X163570000Y-120210000D03*
X148330000Y-143070000D03*
X163570000Y-117670000D03*
X148330000Y-145610000D03*
X163570000Y-115130000D03*
X148330000Y-148150000D03*
X163570000Y-112590000D03*
X148330000Y-150690000D03*
X163570000Y-110050000D03*
X148330000Y-153230000D03*
X163570000Y-107510000D03*
X148330000Y-155770000D03*
X163570000Y-104970000D03*
D15*
X161800000Y-135350000D03*
X161800000Y-134550000D03*
X161800000Y-133750000D03*
X161800000Y-132950000D03*
X161800000Y-132150000D03*
X161800000Y-131350000D03*
X161800000Y-130550000D03*
X161800000Y-129750000D03*
X161800000Y-128950000D03*
X161800000Y-128150000D03*
X161800000Y-127350000D03*
D16*
X160100000Y-125650000D03*
X159300000Y-125650000D03*
X158500000Y-125650000D03*
X157700000Y-125650000D03*
X156900000Y-125650000D03*
X156100000Y-125650000D03*
X155300000Y-125650000D03*
X154500000Y-125650000D03*
X153700000Y-125650000D03*
X152900000Y-125650000D03*
X152100000Y-125650000D03*
D15*
X150400000Y-127350000D03*
X150400000Y-128150000D03*
X150400000Y-128950000D03*
X150400000Y-129750000D03*
X150400000Y-130550000D03*
X150400000Y-131350000D03*
X150400000Y-132150000D03*
X150400000Y-132950000D03*
X150400000Y-133750000D03*
X150400000Y-134550000D03*
X150400000Y-135350000D03*
D16*
X152100000Y-137050000D03*
X152900000Y-137050000D03*
X153700000Y-137050000D03*
X154500000Y-137050000D03*
X155300000Y-137050000D03*
X156100000Y-137050000D03*
X156900000Y-137050000D03*
X157700000Y-137050000D03*
X158500000Y-137050000D03*
X159300000Y-137050000D03*
X160100000Y-137050000D03*
M02*
