G04 #@! TF.FileFunction,Legend,Top*
%FSLAX46Y46*%
G04 Gerber Fmt 4.6, Leading zero omitted, Abs format (unit mm)*
G04 Created by KiCad (PCBNEW 4.0.7-e2-6376~58~ubuntu16.04.1) date Tue Aug 20 20:43:04 2024*
%MOMM*%
%LPD*%
G01*
G04 APERTURE LIST*
%ADD10C,0.100000*%
%ADD11C,0.300000*%
%ADD12C,0.120000*%
%ADD13C,0.150000*%
%ADD14R,1.900000X1.700000*%
%ADD15R,2.000000X2.000000*%
%ADD16O,2.000000X2.000000*%
%ADD17O,1.800000X2.000000*%
%ADD18R,1.900000X0.950000*%
%ADD19R,0.950000X1.900000*%
G04 APERTURE END LIST*
D10*
D11*
X152471429Y-112488573D02*
X152471429Y-111774287D01*
X151757143Y-111702858D01*
X151828571Y-111774287D01*
X151900000Y-111917144D01*
X151900000Y-112274287D01*
X151828571Y-112417144D01*
X151757143Y-112488573D01*
X151614286Y-112560001D01*
X151257143Y-112560001D01*
X151114286Y-112488573D01*
X151042857Y-112417144D01*
X150971429Y-112274287D01*
X150971429Y-111917144D01*
X151042857Y-111774287D01*
X151114286Y-111702858D01*
X152328571Y-113131429D02*
X152400000Y-113202858D01*
X152471429Y-113345715D01*
X152471429Y-113702858D01*
X152400000Y-113845715D01*
X152328571Y-113917144D01*
X152185714Y-113988572D01*
X152042857Y-113988572D01*
X151828571Y-113917144D01*
X150971429Y-113060001D01*
X150971429Y-113988572D01*
X152471429Y-114488572D02*
X150971429Y-115488572D01*
X152471429Y-115488572D02*
X150971429Y-114488572D01*
X152471429Y-115917143D02*
X150971429Y-116917143D01*
X152471429Y-116917143D02*
X150971429Y-115917143D01*
X150971429Y-119488571D02*
X151685714Y-118988571D01*
X150971429Y-118631428D02*
X152471429Y-118631428D01*
X152471429Y-119202856D01*
X152400000Y-119345714D01*
X152328571Y-119417142D01*
X152185714Y-119488571D01*
X151971429Y-119488571D01*
X151828571Y-119417142D01*
X151757143Y-119345714D01*
X151685714Y-119202856D01*
X151685714Y-118631428D01*
X150971429Y-120917142D02*
X150971429Y-120059999D01*
X150971429Y-120488571D02*
X152471429Y-120488571D01*
X152257143Y-120345714D01*
X152114286Y-120202856D01*
X152042857Y-120059999D01*
D12*
X155112000Y-106798000D02*
X153912000Y-106798000D01*
X153912000Y-105038000D02*
X155112000Y-105038000D01*
X155110000Y-109090000D02*
X153910000Y-109090000D01*
X153910000Y-107330000D02*
X155110000Y-107330000D01*
X156950000Y-103640000D02*
G75*
G02X154950000Y-103640000I-1000000J0D01*
G01*
X154950000Y-103640000D02*
X149490000Y-103640000D01*
X149490000Y-103640000D02*
X149490000Y-157100000D01*
X149490000Y-157100000D02*
X162410000Y-157100000D01*
X162410000Y-157100000D02*
X162410000Y-103640000D01*
X162410000Y-103640000D02*
X156950000Y-103640000D01*
D13*
X161275000Y-136525000D02*
X161275000Y-135950000D01*
X150925000Y-136525000D02*
X150925000Y-135850000D01*
X150925000Y-126175000D02*
X150925000Y-126850000D01*
X161275000Y-126175000D02*
X161275000Y-126850000D01*
X161275000Y-136525000D02*
X160600000Y-136525000D01*
X161275000Y-126175000D02*
X160600000Y-126175000D01*
X150925000Y-126175000D02*
X151600000Y-126175000D01*
X150925000Y-136525000D02*
X151600000Y-136525000D01*
X161275000Y-135950000D02*
X162550000Y-135950000D01*
X157993334Y-106297143D02*
X157945715Y-106344762D01*
X157802858Y-106392381D01*
X157707620Y-106392381D01*
X157564762Y-106344762D01*
X157469524Y-106249524D01*
X157421905Y-106154286D01*
X157374286Y-105963810D01*
X157374286Y-105820952D01*
X157421905Y-105630476D01*
X157469524Y-105535238D01*
X157564762Y-105440000D01*
X157707620Y-105392381D01*
X157802858Y-105392381D01*
X157945715Y-105440000D01*
X157993334Y-105487619D01*
X158421905Y-106392381D02*
X158421905Y-105392381D01*
X158993334Y-106392381D02*
X158564762Y-105820952D01*
X158993334Y-105392381D02*
X158421905Y-105963810D01*
X159945715Y-106392381D02*
X159374286Y-106392381D01*
X159660000Y-106392381D02*
X159660000Y-105392381D01*
X159564762Y-105535238D01*
X159469524Y-105630476D01*
X159374286Y-105678095D01*
X153603334Y-110327143D02*
X153555715Y-110374762D01*
X153412858Y-110422381D01*
X153317620Y-110422381D01*
X153174762Y-110374762D01*
X153079524Y-110279524D01*
X153031905Y-110184286D01*
X152984286Y-109993810D01*
X152984286Y-109850952D01*
X153031905Y-109660476D01*
X153079524Y-109565238D01*
X153174762Y-109470000D01*
X153317620Y-109422381D01*
X153412858Y-109422381D01*
X153555715Y-109470000D01*
X153603334Y-109517619D01*
X154031905Y-110422381D02*
X154031905Y-109422381D01*
X154603334Y-110422381D02*
X154174762Y-109850952D01*
X154603334Y-109422381D02*
X154031905Y-109993810D01*
X154984286Y-109517619D02*
X155031905Y-109470000D01*
X155127143Y-109422381D01*
X155365239Y-109422381D01*
X155460477Y-109470000D01*
X155508096Y-109517619D01*
X155555715Y-109612857D01*
X155555715Y-109708095D01*
X155508096Y-109850952D01*
X154936667Y-110422381D01*
X155555715Y-110422381D01*
X149820805Y-104988781D02*
X149820805Y-103988781D01*
X150201758Y-103988781D01*
X150296996Y-104036400D01*
X150344615Y-104084019D01*
X150392234Y-104179257D01*
X150392234Y-104322114D01*
X150344615Y-104417352D01*
X150296996Y-104464971D01*
X150201758Y-104512590D01*
X149820805Y-104512590D01*
X151344615Y-104988781D02*
X150773186Y-104988781D01*
X151058900Y-104988781D02*
X151058900Y-103988781D01*
X150963662Y-104131638D01*
X150868424Y-104226876D01*
X150773186Y-104274495D01*
X160838095Y-137212381D02*
X160838095Y-138021905D01*
X160885714Y-138117143D01*
X160933333Y-138164762D01*
X161028571Y-138212381D01*
X161219048Y-138212381D01*
X161314286Y-138164762D01*
X161361905Y-138117143D01*
X161409524Y-138021905D01*
X161409524Y-137212381D01*
X162409524Y-138212381D02*
X161838095Y-138212381D01*
X162123809Y-138212381D02*
X162123809Y-137212381D01*
X162028571Y-137355238D01*
X161933333Y-137450476D01*
X161838095Y-137498095D01*
%LPC*%
D14*
X153162000Y-105918000D03*
X155862000Y-105918000D03*
X153160000Y-108210000D03*
X155860000Y-108210000D03*
D15*
X148330000Y-104970000D03*
D16*
X163570000Y-155770000D03*
X148330000Y-107510000D03*
X163570000Y-153230000D03*
X148330000Y-110050000D03*
X163570000Y-150690000D03*
X148330000Y-112590000D03*
X163570000Y-148150000D03*
X148330000Y-115130000D03*
X163570000Y-145610000D03*
X148330000Y-117670000D03*
X163570000Y-143070000D03*
X148330000Y-120210000D03*
X163570000Y-140530000D03*
X148330000Y-122750000D03*
X163570000Y-137990000D03*
X148330000Y-125290000D03*
D17*
X163570000Y-135450000D03*
X148330000Y-127830000D03*
X163570000Y-132910000D03*
X148330000Y-130370000D03*
X163570000Y-130370000D03*
X148330000Y-132910000D03*
X163570000Y-127830000D03*
X148330000Y-135450000D03*
D16*
X163570000Y-125290000D03*
X148330000Y-137990000D03*
X163570000Y-122750000D03*
X148330000Y-140530000D03*
X163570000Y-120210000D03*
X148330000Y-143070000D03*
X163570000Y-117670000D03*
X148330000Y-145610000D03*
X163570000Y-115130000D03*
X148330000Y-148150000D03*
X163570000Y-112590000D03*
X148330000Y-150690000D03*
X163570000Y-110050000D03*
X148330000Y-153230000D03*
X163570000Y-107510000D03*
X148330000Y-155770000D03*
X163570000Y-104970000D03*
D18*
X161800000Y-135350000D03*
X161800000Y-134550000D03*
X161800000Y-133750000D03*
X161800000Y-132950000D03*
X161800000Y-132150000D03*
X161800000Y-131350000D03*
X161800000Y-130550000D03*
X161800000Y-129750000D03*
X161800000Y-128950000D03*
X161800000Y-128150000D03*
X161800000Y-127350000D03*
D19*
X160100000Y-125650000D03*
X159300000Y-125650000D03*
X158500000Y-125650000D03*
X157700000Y-125650000D03*
X156900000Y-125650000D03*
X156100000Y-125650000D03*
X155300000Y-125650000D03*
X154500000Y-125650000D03*
X153700000Y-125650000D03*
X152900000Y-125650000D03*
X152100000Y-125650000D03*
D18*
X150400000Y-127350000D03*
X150400000Y-128150000D03*
X150400000Y-128950000D03*
X150400000Y-129750000D03*
X150400000Y-130550000D03*
X150400000Y-131350000D03*
X150400000Y-132150000D03*
X150400000Y-132950000D03*
X150400000Y-133750000D03*
X150400000Y-134550000D03*
X150400000Y-135350000D03*
D19*
X152100000Y-137050000D03*
X152900000Y-137050000D03*
X153700000Y-137050000D03*
X154500000Y-137050000D03*
X155300000Y-137050000D03*
X156100000Y-137050000D03*
X156900000Y-137050000D03*
X157700000Y-137050000D03*
X158500000Y-137050000D03*
X159300000Y-137050000D03*
X160100000Y-137050000D03*
M02*
