M48
;DRILL file {KiCad 4.0.7-e2-6376~58~ubuntu16.04.1} date Tue Aug 20 20:42:59 2024
;FORMAT={-:-/ absolute / metric / decimal}
FMAT,2
METRIC,TZ
T1C0.400
T2C0.800
%
G90
G05
M71
T1
X150.41Y-146.05
X150.42Y-136.23
X151.97Y-132.23
X152.062Y-147.439
X152.12Y-138.42
X152.431Y-149.715
X152.525Y-127.378
X152.93Y-138.67
X153.443Y-126.924
X153.679Y-152.595
X153.87Y-138.74
X154.142Y-127.311
X154.55Y-134.55
X154.565Y-121.352
X154.77Y-138.67
X154.82Y-155.83
X154.901Y-127.056
X155.19Y-120.4
X155.3Y-135.9
X155.326Y-127.734
X155.705Y-129.361
X155.71Y-128.561
X155.765Y-117.506
X156.Y-133.9
X156.12Y-142.87
X156.168Y-116.718
X156.325Y-130.035
X156.65Y-131.218
X156.84Y-110.09
X156.88Y-135.75
X157.62Y-108.148
X157.65Y-141.
X158.11Y-122.39
X158.441Y-133.123
X158.6Y-134.165
X159.14Y-139.67
X159.325Y-112.363
X159.35Y-110.122
X159.366Y-123.424
X159.855Y-138.588
X159.855Y-144.986
X160.04Y-129.112
X160.04Y-130.09
X160.183Y-130.877
X160.33Y-133.73
X160.4Y-110.9
X160.48Y-153.22
X160.52Y-132.05
X160.64Y-134.59
X160.658Y-124.166
X160.665Y-128.062
X160.89Y-115.42
X161.12Y-151.33
X161.311Y-124.629
X161.745Y-136.525
X161.745Y-149.09
X161.926Y-125.803
T2
X148.33Y-104.97
X148.33Y-107.51
X148.33Y-110.05
X148.33Y-112.59
X148.33Y-115.13
X148.33Y-117.67
X148.33Y-120.21
X148.33Y-122.75
X148.33Y-125.29
X148.33Y-127.83
X148.33Y-130.37
X148.33Y-132.91
X148.33Y-135.45
X148.33Y-137.99
X148.33Y-140.53
X148.33Y-143.07
X148.33Y-145.61
X148.33Y-148.15
X148.33Y-150.69
X148.33Y-153.23
X148.33Y-155.77
X163.57Y-104.97
X163.57Y-107.51
X163.57Y-110.05
X163.57Y-112.59
X163.57Y-115.13
X163.57Y-117.67
X163.57Y-120.21
X163.57Y-122.75
X163.57Y-125.29
X163.57Y-127.83
X163.57Y-130.37
X163.57Y-132.91
X163.57Y-135.45
X163.57Y-137.99
X163.57Y-140.53
X163.57Y-143.07
X163.57Y-145.61
X163.57Y-148.15
X163.57Y-150.69
X163.57Y-153.23
X163.57Y-155.77
T0
M30
